<svg xmlns="http://www.w3.org/2000/svg" viewBox="0 0 369 80"><defs><style>.cls-1{fill:#2c2c4b;}</style></defs><g id="Layer_2" data-name="Layer 2"><g id="HOMEPAGE"><path class="cls-1" d="M42.9,16.28c-7.59,0-4.55-11.11-11.39-11.11-5.31,0-6.83,4-6.83,15V35.84H37.33v5.55H24.68v18c0,12.62,1.52,14.77,10,14.77v3.65H.38V74.2c8.48,0,10-2.15,10-14.77v-18H0V35.84H10.38V25.62C10.38,8.45,16.83,0,31.76,0c10.13,0,16,6.31,16,11.1C47.71,13.75,46.07,16.28,42.9,16.28Z"/><path class="cls-1" d="M74.16,80c-14,0-25.56-10.47-25.56-23.22S60.11,33.69,74.16,33.69,99.6,44,99.6,56.78,88.21,80,74.16,80Zm0-40.38c-6.83,0-10,7.7-10,17.16s3.17,17.29,10,17.29,10-7.82,10-17.29S81,39.62,74.16,39.62Z"/><path class="cls-1" d="M131,57.92c0,10.09,4.69,15.9,12.79,15.9,3.54,0,8.22-1.9,12.78-5.81l2.28,3.66a25.75,25.75,0,0,1-19,8.33c-13.92,0-24.42-9.46-24.42-22.08,0-14.89,10.88-24.23,23.41-24.23,10.51,0,16.2,5.43,16.2,10.22,0,2-1.27,5.3-5.69,5.3a5,5,0,0,1-4.94-5.05c0-4-2.28-5.42-4.56-5.42C133.14,38.74,131,46.31,131,57.92Z"/><path class="cls-1" d="M207.3,79.24c-5.7,0-8.86-2.77-9.75-7.32-7.08,5.56-10.25,7.58-15.94,7.58-6.08,0-12.15-3.92-12.15-10.6,0-10.73,11.52-15.4,28.09-17.92v-.13c0-9.34-2.91-12-8.22-12-2.91,0-6.84,1.64-6.84,4.93s-2.27,5.42-5.06,5.42-4.93-2-4.93-5.42c0-6.31,9.11-10.1,18.35-10.1,14,0,20,5.17,20,17.16v17c0,3.15,1,4.79,2.79,4.79a7.39,7.39,0,0,0,3.67-1.51l1.77,3.4C215.4,77.35,210.21,79.24,207.3,79.24ZM197.55,56c-9.74,2.52-15.56,5-15.56,11.35,0,3.79,2.53,5.05,5.06,5.05,2,0,6.2-1.89,10.5-5.68Z"/><path class="cls-1" d="M229.45,77.85V74.2c8.48,0,10-2.15,10-14.77V21.58c0-12.62-1.51-14.77-10-14.77V3.15L253.74,0V59.43c0,12.62,1.52,14.77,10,14.77v3.65Z"/><path class="cls-1" d="M287.05,58.8c1.16,0,3.2-1.45,3.88-2.12V58.9c-1.94,1.94-4.56,3.39-6.31,3.39-3.39,0-4.85-2.9-4.17-6.77L284.14,35c.38-2.32.19-4.06-1.07-4.06s-3.2,1.45-3.88,2.23V30.84c1.84-1.93,4.46-3.29,6.31-3.29,3.39,0,4.85,2.81,4.17,6.68l-3.59,20.61C285.59,57.06,285.79,58.8,287.05,58.8ZM290,16.72a2.79,2.79,0,0,1-2.82-3.39A4.43,4.43,0,0,1,291.22,10,2.81,2.81,0,0,1,294,13.33,4.15,4.15,0,0,1,290,16.72Z"/><path class="cls-1" d="M313.73,54.35c8.54,0,8.15,10.36,14.94,10.36a10.07,10.07,0,0,0,7-2.62l1.07,1.07c-2.62,4.06-5.92,7.93-10.29,7.93-6.79,0-8.34-14-13.58-14s-5.63,5.23-7.57,5.61c-1.07.2-2.23-.29-1.85-2.7C304.22,55.71,321,38.78,326,34.42a16.89,16.89,0,0,1-3.4.49c-3.59,0-5.14-2.32-8.93-2.32a5.79,5.79,0,0,0-4.46,2.12L308.1,34c1.55-3.29,4.27-6.87,7.18-6.87,4.47,0,6.8,5,10.19,5s4.27-5,5.92-5c.78,0,1.26.38,1.07,1.64-.39,1.84-1.46,3.58-4.56,6.77-5.82,5.81-13.88,14.32-16.6,19A19.9,19.9,0,0,1,313.73,54.35Z"/><path class="cls-1" d="M358,58.8c2.42,0,6.21-1.93,8.82-4.45l.88,1.94c-3.2,3.58-8.06,6.38-12.23,6.38-8.05,0-12-8-10.38-17.8,1.94-10.25,9.9-17.7,16.69-17.7,5.14,0,8,3.77,7.08,8.32-.87,5-6.5,11.12-18.53,13.64C350.21,55,352.64,58.8,358,58.8Zm6-23.22c.39-2.51-.48-4.54-2.91-4.54-4.46,0-8.73,5.22-10.29,13.93-.09.58-.19,1.06-.29,1.55C359,44.49,363.21,39.46,364,35.58Z"/></g></g></svg>